HIERARCHY
ROOT Hips
{
 OFFSET 0.000000 0.000000 0.000000
 CHANNELS 6 Xposition Yposition Zposition Yrotation Xrotation Zrotation
 JOINT Chest
 {
  OFFSET 0.000000 10.383400 0.001500
  CHANNELS 3 Yrotation Xrotation Zrotation
  JOINT Chest2
  {
   OFFSET 0.000000 10.418200 -0.003100
   CHANNELS 3 Yrotation Xrotation Zrotation
   JOINT Chest3
   {
    OFFSET 0.000000 10.375100 0.000000
    CHANNELS 3 Yrotation Xrotation Zrotation
    JOINT Chest4
    {
     OFFSET 0.000000 10.364600 0.000000
     CHANNELS 3 Yrotation Xrotation Zrotation
     JOINT Neck
     {
      OFFSET 0.000000 15.642200 0.000000
      CHANNELS 3 Yrotation Xrotation Zrotation
      JOINT Head
      {
       OFFSET 0.000000 9.697300 -0.006500
       CHANNELS 3 Yrotation Xrotation Zrotation
       End Site
       {
        OFFSET 0.000000 18.492200 -0.003400
       }
      }
     }
     JOINT RightCollar
     {
      OFFSET -3.166800 10.349300 0.000000
      CHANNELS 3 Yrotation Xrotation Zrotation
      JOINT RightShoulder
      {
       OFFSET -14.729700 0.000000 0.000000
       CHANNELS 3 Yrotation Xrotation Zrotation
       JOINT RightElbow
       {
        OFFSET 0.000000 -32.224300 0.000000
        CHANNELS 3 Yrotation Xrotation Zrotation
        JOINT RightWrist
        {
         OFFSET 0.000000 -26.084100 0.000000
         CHANNELS 3 Yrotation Xrotation Zrotation
         End Site
         {
          OFFSET 0.000000 -19.319400 0.000000
         }
        }
       }
      }
     }
     JOINT LeftCollar
     {
      OFFSET 3.166800 10.349300 0.000000
      CHANNELS 3 Yrotation Xrotation Zrotation
      JOINT LeftShoulder
      {
       OFFSET 14.729700 0.000000 0.000000
       CHANNELS 3 Yrotation Xrotation Zrotation
       JOINT LeftElbow
       {
        OFFSET 0.000000 -32.224300 0.000000
        CHANNELS 3 Yrotation Xrotation Zrotation
        JOINT LeftWrist
        {
         OFFSET 0.000000 -26.084100 0.000000
         CHANNELS 3 Yrotation Xrotation Zrotation
         End Site
         {
          OFFSET 0.000000 -19.319400 0.000000
         }
        }
       }
      }
     }
    }
   }
  }
 }
 JOINT RightHip
 {
  OFFSET -8.428900 -0.007500 -0.000800
  CHANNELS 3 Yrotation Xrotation Zrotation
  JOINT RightKnee
  {
   OFFSET 0.000000 -43.834600 0.000700
   CHANNELS 3 Yrotation Xrotation Zrotation
   JOINT RightAnkle
   {
    OFFSET 0.000000 -42.757000 0.001200
    CHANNELS 3 Yrotation Xrotation Zrotation
    JOINT RightToe
    {
     OFFSET 0.000000 -6.946900 15.649300
     CHANNELS 3 Yrotation Xrotation Zrotation
     End Site
     {
      OFFSET 0.000000 -1.580800 6.825800
     }
    }
   }
  }
 }
 JOINT LeftHip
 {
  OFFSET 8.428900 -0.007500 -0.000800
  CHANNELS 3 Yrotation Xrotation Zrotation
  JOINT LeftKnee
  {
   OFFSET 0.000000 -43.834600 0.000700
   CHANNELS 3 Yrotation Xrotation Zrotation
   JOINT LeftAnkle
   {
    OFFSET 0.000000 -42.757000 0.001200
    CHANNELS 3 Yrotation Xrotation Zrotation
    JOINT LeftToe
    {
     OFFSET 0.000000 -6.946900 15.649300
     CHANNELS 3 Yrotation Xrotation Zrotation
     End Site
     {
      OFFSET 0.000000 -1.580800 6.825800
     }
    }
   }
  }
 }
}
MOTION
Frames: 9
Frame Time: 0.008333
0.000000 93.354300 0.000000 0.000000 -5.767877 0.000000 0.000000 11.653817 0.000000 0.000000 -5.885947 0.000000 0.000000 -0.000000 0.000000 0.000000 -0.000000 0.000000 0.000000 12.528835 0.000000 0.000000 0.711642 0.000000 0.000000 -0.000000 0.000000 0.000000 0.000000 -90.000000 0.000000 -2.309062 0.000000 0.000000 2.309062 0.000000 0.000000 -0.000000 0.000000 0.000000 -0.000000 90.000000 0.000000 -2.309062 0.000000 0.000000 2.309062 0.000000 0.000000 8.520406 0.000000 0.000000 1.905762 0.000000 -0.000000 -4.658285 0.000000 0.000000 -0.000000 0.000000 0.000000 8.520406 0.000000 0.000000 1.905762 0.000000 -0.000000 -4.658285 0.000000 0.000000 -0.000000 0.000000
0.637315 151.115416 -9.162507 176.275236 -13.401540 -2.698618 -0.368821 14.209132 0.626492 -0.037865 1.228654 0.059513 -0.062330 2.128599 0.123712 -0.340658 12.762705 0.577667 -2.531006 12.330554 1.648970 -3.046867 -12.674124 2.331069 4.992183 -3.610612 -0.024562 19.424804 -21.398208 -12.353067 43.624019 -35.444130 -16.688937 17.063570 -8.522338 -39.953019 -7.516413 -1.912801 0.765799 -1.807149 -22.494804 7.083267 -18.566792 -49.533475 -4.305673 -12.935911 0.285043 16.877484 2.824059 -54.855858 6.433114 -100.454624 84.580855 -98.949111 -0.858100 -20.233367 1.837057 -0.004686 -0.016179 -0.001347 2.536557 -54.896068 -6.841526 98.463425 81.298273 104.733628 8.420406 -20.317692 -10.547126 0.009556 -0.000072 0.006431
0.387740 143.161978 -8.629627 176.282673 -13.440117 -2.732930 -0.366796 14.207244 0.638040 -0.037045 1.247668 0.069955 -0.063911 2.099780 0.110848 -0.340882 12.727398 0.568660 -2.537163 12.368973 1.685459 -3.107568 -12.747064 2.396757 4.977063 -3.683635 -0.053825 19.434864 -21.392850 -12.278918 43.650207 -35.218522 -16.600395 17.055848 -8.701725 -40.081345 -7.510283 -1.986305 0.821108 -1.851447 -22.504960 7.081945 -18.545122 -49.254235 -4.466964 -12.814724 -0.089663 17.214681 2.796020 -54.829036 6.484839 -100.522265 84.563426 -99.010461 -0.860684 -20.193361 1.849154 -0.003015 -0.001122 -0.001338 2.488604 -54.865784 -6.785626 98.480472 81.294983 104.758955 8.415880 -20.295148 -10.553143 0.006524 0.016614 0.002897
0.178887 136.611656 -8.187137 176.286570 -13.458735 -2.750104 -0.366369 14.205253 0.643818 -0.036848 1.209630 0.054043 -0.061287 2.109336 0.115385 -0.343722 12.684552 0.559612 -2.543882 12.414626 1.720629 -3.172768 -12.807254 2.463442 4.967571 -3.723014 -0.073459 19.447767 -21.407272 -12.222686 43.658936 -34.997546 -16.498737 17.052940 -8.892919 -40.201655 -7.505043 -2.059814 0.871187 -1.904383 -22.511934 7.090992 -18.511898 -48.963011 -4.627317 -12.694453 -0.472081 17.536497 2.799801 -54.822207 6.504991 -100.574246 84.545653 -99.056396 -0.865242 -20.171096 1.856236 -0.000446 -0.001796 -0.000198 2.468340 -54.859676 -6.762346 98.496183 81.295424 104.784827 8.406749 -20.262871 -10.557966 0.003244 0.016570 0.001440
0.025431 131.880928 -7.864951 176.287580 -13.468384 -2.757022 -0.367524 14.192806 0.639197 -0.035144 1.181428 0.044132 -0.065086 2.103806 0.113473 -0.335747 12.659000 0.558825 -2.609734 12.337945 1.773190 -3.187886 -12.744495 2.487602 4.953864 -3.776593 -0.101839 19.466484 -21.415475 -12.164403 43.634744 -34.782069 -16.373462 17.048891 -9.108128 -40.323774 -7.509265 -2.149952 0.914873 -1.958790 -22.513838 7.107774 -18.475752 -48.663851 -4.777748 -12.567167 -0.863525 17.838160 2.813727 -54.823985 6.514394 -100.577213 84.530450 -99.068088 -0.868079 -20.145639 1.869805 -0.003699 0.000622 -0.001642 2.456902 -54.862957 -6.752317 98.512412 81.299060 104.804252 8.407137 -20.232564 -10.561418 -0.000369 0.015645 -0.000164
-0.071566 128.893648 -7.659346 176.294492 -13.477717 -2.773811 -0.366965 14.155442 0.636569 -0.037342 1.215497 0.058188 -0.062403 2.056668 0.098081 -0.336178 12.634235 0.557429 -2.659751 12.313222 1.814211 -3.229446 -12.724147 2.529028 4.938481 -3.832996 -0.133574 19.491285 -21.415671 -12.105271 43.591116 -34.571476 -16.233876 17.045796 -9.347859 -40.469604 -7.524495 -2.240277 0.954725 -2.008834 -22.512701 7.134243 -18.444597 -48.363389 -4.922081 -12.417296 -1.259459 18.127982 2.826313 -54.829463 6.534576 -100.644290 84.512408 -99.131468 -0.882156 -20.121347 1.878457 -0.000490 0.001516 -0.000217 2.415172 -54.882609 -6.715676 98.656125 81.300507 104.945320 8.410128 -20.202537 -10.566069 -0.001605 0.000697 -0.000713
-0.125802 127.251807 -7.546142 176.289581 -13.501407 -2.789132 -0.359696 14.128902 0.633008 -0.036763 1.210663 0.057905 -0.062649 1.997680 0.082757 -0.329998 12.659027 0.570489 -2.701021 12.312285 1.851382 -3.283383 -12.724254 2.579189 4.924844 -3.890371 -0.166263 19.516419 -21.409745 -12.046126 43.536691 -34.369344 -16.086054 17.044272 -9.604558 -40.641463 -7.544717 -2.327166 0.992322 -2.057426 -22.510589 7.171138 -18.414288 -48.066971 -5.067815 -12.246035 -1.662344 18.413864 2.862895 -54.824505 6.555275 -100.674697 84.495174 -99.156606 -0.907549 -20.088616 1.893203 0.002639 0.000215 0.001172 2.394242 -54.867633 -6.683599 98.647054 81.304569 104.938217 8.416717 -20.168223 -10.571297 -0.002407 0.007737 -0.001069
-0.152967 126.470866 -7.490447 176.291596 -13.524482 -2.806083 -0.360511 14.038989 0.609555 -0.034051 1.266289 0.077752 -0.063418 1.966722 0.075928 -0.326197 12.651517 0.572848 -2.743015 12.311574 1.891005 -3.338790 -12.724016 2.632241 4.910189 -3.943387 -0.194434 19.539632 -21.402272 -11.988446 43.466460 -34.175785 -15.925680 17.040503 -9.877423 -40.829162 -7.568198 -2.406747 1.030256 -2.109857 -22.506462 7.220506 -18.376727 -47.777544 -5.220904 -12.074285 -2.068763 18.695436 2.885766 -54.816819 6.578506 -100.658527 84.487199 -99.147549 -0.931828 -20.057671 1.918015 -0.004253 -0.001700 -0.001888 2.358431 -54.867618 -6.646565 98.738058 81.298924 105.030081 8.421615 -20.122733 -10.586792 -0.000454 0.004742 -0.000201
-0.162170 126.153503 -7.469568 176.289699 -13.571487 -2.840023 -0.349820 14.024937 0.621479 -0.035047 1.211834 0.062992 -0.060342 2.006426 0.089492 -0.320982 12.625627 0.570573 -2.784700 12.310236 1.933915 -3.394778 -12.724412 2.688791 4.893670 -3.991067 -0.216647 19.557614 -21.395939 -11.933523 43.370250 -33.994080 -15.746465 17.034176 -10.163915 -41.016405 -7.602511 -2.481017 1.072123 -2.165611 -22.499368 7.282891 -18.328278 -47.490137 -5.387404 -11.903147 -2.476137 18.979929 2.863828 -54.777721 6.641522 -100.579695 84.488825 -99.076994 -0.946305 -20.035011 1.937795 -0.015623 -0.006330 -0.006935 2.289782 -54.866666 -6.570052 98.951074 81.292444 105.240944 8.424019 -20.022155 -10.560608 0.003453 -0.002435 0.001533
